<mxfile host="app.diagrams.net" modified="2023-10-30T21:49:34.470Z" agent="Mozilla/5.0 (Macintosh; Intel Mac OS X 10_15_7) AppleWebKit/605.1.15 (KHTML, like Gecko) Version/15.4 Safari/605.1.15" etag="J29d7qXbyTNc3dg7fEYZ" version="22.0.8" type="github">
  <diagram name="Page-1" id="MJdb3V1S0zMaWBz4nhOI">
    <mxGraphModel dx="2261" dy="804" grid="1" gridSize="10" guides="1" tooltips="1" connect="1" arrows="1" fold="1" page="1" pageScale="1" pageWidth="827" pageHeight="1169" math="0" shadow="0">
      <root>
        <mxCell id="0" />
        <mxCell id="1" parent="0" />
        <mxCell id="U-nL8kf_2ELHpFVyTYtj-15" style="edgeStyle=orthogonalEdgeStyle;rounded=0;orthogonalLoop=1;jettySize=auto;html=1;exitX=0.5;exitY=1;exitDx=0;exitDy=0;entryX=0.5;entryY=0;entryDx=0;entryDy=0;" edge="1" parent="1" source="U-nL8kf_2ELHpFVyTYtj-1" target="U-nL8kf_2ELHpFVyTYtj-4">
          <mxGeometry relative="1" as="geometry" />
        </mxCell>
        <mxCell id="U-nL8kf_2ELHpFVyTYtj-16" style="edgeStyle=orthogonalEdgeStyle;orthogonalLoop=1;jettySize=auto;html=1;exitX=0.5;exitY=1;exitDx=0;exitDy=0;entryX=0.5;entryY=0;entryDx=0;entryDy=0;strokeColor=default;curved=1;" edge="1" parent="1" source="U-nL8kf_2ELHpFVyTYtj-1" target="U-nL8kf_2ELHpFVyTYtj-5">
          <mxGeometry relative="1" as="geometry" />
        </mxCell>
        <mxCell id="U-nL8kf_2ELHpFVyTYtj-17" style="edgeStyle=orthogonalEdgeStyle;orthogonalLoop=1;jettySize=auto;html=1;exitX=0.5;exitY=1;exitDx=0;exitDy=0;entryX=0.5;entryY=0;entryDx=0;entryDy=0;curved=1;" edge="1" parent="1" source="U-nL8kf_2ELHpFVyTYtj-1" target="U-nL8kf_2ELHpFVyTYtj-2">
          <mxGeometry relative="1" as="geometry" />
        </mxCell>
        <mxCell id="U-nL8kf_2ELHpFVyTYtj-1" value="MONSTERS MODEL" style="rounded=1;whiteSpace=wrap;html=1;" vertex="1" parent="1">
          <mxGeometry x="346" y="160" width="136" height="50" as="geometry" />
        </mxCell>
        <mxCell id="U-nL8kf_2ELHpFVyTYtj-22" style="edgeStyle=orthogonalEdgeStyle;rounded=0;orthogonalLoop=1;jettySize=auto;html=1;exitX=0.5;exitY=1;exitDx=0;exitDy=0;entryX=0.5;entryY=0;entryDx=0;entryDy=0;" edge="1" parent="1" source="U-nL8kf_2ELHpFVyTYtj-2" target="U-nL8kf_2ELHpFVyTYtj-7">
          <mxGeometry relative="1" as="geometry" />
        </mxCell>
        <mxCell id="U-nL8kf_2ELHpFVyTYtj-23" style="edgeStyle=orthogonalEdgeStyle;orthogonalLoop=1;jettySize=auto;html=1;exitX=0.5;exitY=1;exitDx=0;exitDy=0;entryX=0.5;entryY=0;entryDx=0;entryDy=0;curved=1;" edge="1" parent="1" source="U-nL8kf_2ELHpFVyTYtj-2" target="U-nL8kf_2ELHpFVyTYtj-8">
          <mxGeometry relative="1" as="geometry">
            <Array as="points">
              <mxPoint x="120" y="300" />
              <mxPoint x="230" y="300" />
            </Array>
          </mxGeometry>
        </mxCell>
        <mxCell id="U-nL8kf_2ELHpFVyTYtj-24" style="edgeStyle=orthogonalEdgeStyle;orthogonalLoop=1;jettySize=auto;html=1;exitX=0.5;exitY=1;exitDx=0;exitDy=0;entryX=0.5;entryY=0;entryDx=0;entryDy=0;curved=1;" edge="1" parent="1" source="U-nL8kf_2ELHpFVyTYtj-2" target="U-nL8kf_2ELHpFVyTYtj-6">
          <mxGeometry relative="1" as="geometry">
            <Array as="points">
              <mxPoint x="120" y="300" />
              <mxPoint x="10" y="300" />
            </Array>
          </mxGeometry>
        </mxCell>
        <mxCell id="U-nL8kf_2ELHpFVyTYtj-2" value="Size" style="rounded=1;whiteSpace=wrap;html=1;" vertex="1" parent="1">
          <mxGeometry x="60" y="250" width="120" height="40" as="geometry" />
        </mxCell>
        <mxCell id="U-nL8kf_2ELHpFVyTYtj-18" style="edgeStyle=orthogonalEdgeStyle;orthogonalLoop=1;jettySize=auto;html=1;exitX=0.5;exitY=1;exitDx=0;exitDy=0;entryX=0.5;entryY=0;entryDx=0;entryDy=0;curved=1;" edge="1" parent="1" source="U-nL8kf_2ELHpFVyTYtj-4" target="U-nL8kf_2ELHpFVyTYtj-9">
          <mxGeometry relative="1" as="geometry" />
        </mxCell>
        <mxCell id="U-nL8kf_2ELHpFVyTYtj-19" style="edgeStyle=orthogonalEdgeStyle;orthogonalLoop=1;jettySize=auto;html=1;exitX=0.5;exitY=1;exitDx=0;exitDy=0;entryX=0.5;entryY=0;entryDx=0;entryDy=0;curved=1;" edge="1" parent="1" source="U-nL8kf_2ELHpFVyTYtj-4" target="U-nL8kf_2ELHpFVyTYtj-10">
          <mxGeometry relative="1" as="geometry" />
        </mxCell>
        <mxCell id="U-nL8kf_2ELHpFVyTYtj-4" value="Lays-eggs" style="rounded=1;whiteSpace=wrap;html=1;" vertex="1" parent="1">
          <mxGeometry x="353.5" y="250" width="120" height="40" as="geometry" />
        </mxCell>
        <mxCell id="U-nL8kf_2ELHpFVyTYtj-5" value="..." style="rounded=1;whiteSpace=wrap;html=1;" vertex="1" parent="1">
          <mxGeometry x="640" y="250" width="120" height="40" as="geometry" />
        </mxCell>
        <mxCell id="U-nL8kf_2ELHpFVyTYtj-26" style="edgeStyle=orthogonalEdgeStyle;rounded=0;orthogonalLoop=1;jettySize=auto;html=1;exitX=0.5;exitY=1;exitDx=0;exitDy=0;entryX=0.5;entryY=0;entryDx=0;entryDy=0;" edge="1" parent="1" source="U-nL8kf_2ELHpFVyTYtj-6" target="U-nL8kf_2ELHpFVyTYtj-11">
          <mxGeometry relative="1" as="geometry" />
        </mxCell>
        <mxCell id="U-nL8kf_2ELHpFVyTYtj-6" value="huge" style="rounded=1;whiteSpace=wrap;html=1;" vertex="1" parent="1">
          <mxGeometry x="-40" y="320" width="100" height="40" as="geometry" />
        </mxCell>
        <mxCell id="U-nL8kf_2ELHpFVyTYtj-25" style="edgeStyle=orthogonalEdgeStyle;rounded=0;orthogonalLoop=1;jettySize=auto;html=1;exitX=0.5;exitY=1;exitDx=0;exitDy=0;entryX=0.5;entryY=0;entryDx=0;entryDy=0;" edge="1" parent="1" source="U-nL8kf_2ELHpFVyTYtj-7" target="U-nL8kf_2ELHpFVyTYtj-12">
          <mxGeometry relative="1" as="geometry" />
        </mxCell>
        <mxCell id="U-nL8kf_2ELHpFVyTYtj-7" value="tiny" style="rounded=1;whiteSpace=wrap;html=1;" vertex="1" parent="1">
          <mxGeometry x="70" y="320" width="100" height="40" as="geometry" />
        </mxCell>
        <mxCell id="U-nL8kf_2ELHpFVyTYtj-8" value="..." style="rounded=1;whiteSpace=wrap;html=1;" vertex="1" parent="1">
          <mxGeometry x="180" y="320" width="100" height="40" as="geometry" />
        </mxCell>
        <mxCell id="U-nL8kf_2ELHpFVyTYtj-20" style="edgeStyle=orthogonalEdgeStyle;rounded=0;orthogonalLoop=1;jettySize=auto;html=1;exitX=0.5;exitY=1;exitDx=0;exitDy=0;entryX=0.5;entryY=0;entryDx=0;entryDy=0;" edge="1" parent="1" source="U-nL8kf_2ELHpFVyTYtj-9" target="U-nL8kf_2ELHpFVyTYtj-13">
          <mxGeometry relative="1" as="geometry" />
        </mxCell>
        <mxCell id="U-nL8kf_2ELHpFVyTYtj-9" value="True" style="rounded=1;whiteSpace=wrap;html=1;" vertex="1" parent="1">
          <mxGeometry x="310" y="320" width="100" height="40" as="geometry" />
        </mxCell>
        <mxCell id="U-nL8kf_2ELHpFVyTYtj-21" style="edgeStyle=orthogonalEdgeStyle;rounded=0;orthogonalLoop=1;jettySize=auto;html=1;exitX=0.5;exitY=1;exitDx=0;exitDy=0;entryX=0.5;entryY=0;entryDx=0;entryDy=0;" edge="1" parent="1" source="U-nL8kf_2ELHpFVyTYtj-10" target="U-nL8kf_2ELHpFVyTYtj-14">
          <mxGeometry relative="1" as="geometry" />
        </mxCell>
        <mxCell id="U-nL8kf_2ELHpFVyTYtj-10" value="False" style="rounded=1;whiteSpace=wrap;html=1;" vertex="1" parent="1">
          <mxGeometry x="420" y="320" width="100" height="40" as="geometry" />
        </mxCell>
        <mxCell id="U-nL8kf_2ELHpFVyTYtj-11" value="5" style="ellipse;whiteSpace=wrap;html=1;aspect=fixed;" vertex="1" parent="1">
          <mxGeometry x="-5" y="380" width="30" height="30" as="geometry" />
        </mxCell>
        <mxCell id="U-nL8kf_2ELHpFVyTYtj-12" value="-2" style="ellipse;whiteSpace=wrap;html=1;aspect=fixed;" vertex="1" parent="1">
          <mxGeometry x="105" y="380" width="30" height="30" as="geometry" />
        </mxCell>
        <mxCell id="U-nL8kf_2ELHpFVyTYtj-13" value="1" style="ellipse;whiteSpace=wrap;html=1;aspect=fixed;" vertex="1" parent="1">
          <mxGeometry x="345" y="380" width="30" height="30" as="geometry" />
        </mxCell>
        <mxCell id="U-nL8kf_2ELHpFVyTYtj-14" value="3" style="ellipse;whiteSpace=wrap;html=1;aspect=fixed;" vertex="1" parent="1">
          <mxGeometry x="455" y="380" width="30" height="30" as="geometry" />
        </mxCell>
      </root>
    </mxGraphModel>
  </diagram>
</mxfile>
